%TF.GenerationSoftware,KiCad,Pcbnew,8.0.7*%
%TF.CreationDate,2025-06-30T14:07:42-04:00*%
%TF.ProjectId,pathfinder,70617468-6669-46e6-9465-722e6b696361,rev?*%
%TF.SameCoordinates,Original*%
%TF.FileFunction,Copper,L2,Bot*%
%TF.FilePolarity,Positive*%
%FSLAX46Y46*%
G04 Gerber Fmt 4.6, Leading zero omitted, Abs format (unit mm)*
G04 Created by KiCad (PCBNEW 8.0.7) date 2025-06-30 14:07:42*
%MOMM*%
%LPD*%
G01*
G04 APERTURE LIST*
%TA.AperFunction,ComponentPad*%
%ADD10C,1.524000*%
%TD*%
%TA.AperFunction,ComponentPad*%
%ADD11C,2.200000*%
%TD*%
%TA.AperFunction,ComponentPad*%
%ADD12O,1.600000X1.600000*%
%TD*%
%TA.AperFunction,ComponentPad*%
%ADD13C,1.600000*%
%TD*%
%TA.AperFunction,ComponentPad*%
%ADD14R,1.815000X1.815000*%
%TD*%
%TA.AperFunction,ComponentPad*%
%ADD15C,1.815000*%
%TD*%
%TA.AperFunction,Conductor*%
%ADD16C,0.200000*%
%TD*%
G04 APERTURE END LIST*
D10*
%TO.P,U1,14,VBUS*%
%TO.N,unconnected-(U1-VBUS-Pad14)*%
X193357500Y-92392500D03*
%TO.P,U1,13,GND*%
%TO.N,GND*%
X193357500Y-94932500D03*
%TO.P,U1,12,3V3*%
%TO.N,unconnected-(U1-3V3-Pad12)*%
X193357500Y-97472500D03*
%TO.P,U1,11,GPIO3/MOSI*%
%TO.N,unconnected-(U1-GPIO3{slash}MOSI-Pad11)*%
X193357500Y-100012500D03*
%TO.P,U1,10,GPIO4/MISO*%
%TO.N,unconnected-(U1-GPIO4{slash}MISO-Pad10)*%
X193357500Y-102552500D03*
%TO.P,U1,9,GPIO2/SCK*%
%TO.N,unconnected-(U1-GPIO2{slash}SCK-Pad9)*%
X193357500Y-105092500D03*
%TO.P,U1,8,GPIO1/RX*%
%TO.N,unconnected-(U1-GPIO1{slash}RX-Pad8)*%
X193357500Y-107632500D03*
%TO.P,U1,7,GPIO0/TX*%
%TO.N,LED3*%
X178117500Y-107632500D03*
%TO.P,U1,6,GPIO7/SCL*%
%TO.N,LED2*%
X178117500Y-105092500D03*
%TO.P,U1,5,GPIO6/SDA*%
%TO.N,LED1*%
X178117500Y-102552500D03*
%TO.P,U1,4,GPIO29/ADC3/A3*%
%TO.N,SWITCH4*%
X178117500Y-100012500D03*
%TO.P,U1,3,GPIO28/ADC2/A2*%
%TO.N,SWITCH3*%
X178117500Y-97472500D03*
%TO.P,U1,2,GPIO27/ADC1/A1*%
%TO.N,SWITCH2*%
X178117500Y-94932500D03*
%TO.P,U1,1,GPIO26/ADC0/A0*%
%TO.N,SWITCH1*%
X178117500Y-92392500D03*
%TD*%
D11*
%TO.P,SW4,1,1*%
%TO.N,GND*%
X188595000Y-116363750D03*
%TO.P,SW4,2,2*%
%TO.N,unconnected-(SW4-Pad2)*%
X182245000Y-118903750D03*
%TD*%
%TO.P,SW3,1,1*%
%TO.N,GND*%
X169545000Y-116363750D03*
%TO.P,SW3,2,2*%
%TO.N,SWITCH3*%
X163195000Y-118903750D03*
%TD*%
%TO.P,SW2,1,1*%
%TO.N,GND*%
X150495000Y-116363750D03*
%TO.P,SW2,2,2*%
%TO.N,SWITCH2*%
X144145000Y-118903750D03*
%TD*%
%TO.P,SW1,1,1*%
%TO.N,GND*%
X131445000Y-116363750D03*
%TO.P,SW1,2,2*%
%TO.N,SWITCH1*%
X125095000Y-118903750D03*
%TD*%
D12*
%TO.P,R3,2*%
%TO.N,LED3*%
X169068750Y-107473750D03*
D13*
%TO.P,R3,1*%
%TO.N,Net-(D3-PadA)*%
X169068750Y-99853750D03*
%TD*%
D12*
%TO.P,R2,2*%
%TO.N,LED2*%
X150018750Y-107473750D03*
D13*
%TO.P,R2,1*%
%TO.N,Net-(D2-PadA)*%
X150018750Y-99853750D03*
%TD*%
%TO.P,R1,1*%
%TO.N,Net-(D1-PadA)*%
X132080000Y-100012500D03*
D12*
%TO.P,R1,2*%
%TO.N,LED1*%
X132080000Y-107632500D03*
%TD*%
D14*
%TO.P,D2,C*%
%TO.N,GND*%
X143986250Y-97631250D03*
D15*
%TO.P,D2,A*%
%TO.N,Net-(D2-PadA)*%
X146526250Y-97631250D03*
%TD*%
%TO.P,D1,A*%
%TO.N,Net-(D1-PadA)*%
X128587500Y-97790000D03*
D14*
%TO.P,D1,C*%
%TO.N,GND*%
X126047500Y-97790000D03*
%TD*%
D15*
%TO.P,D3,A*%
%TO.N,Net-(D3-PadA)*%
X165576250Y-97631250D03*
D14*
%TO.P,D3,C*%
%TO.N,GND*%
X163036250Y-97631250D03*
%TD*%
D16*
%TO.N,SWITCH1*%
X126682500Y-92392500D02*
X178117500Y-92392500D01*
X123825000Y-117633750D02*
X123825000Y-95250000D01*
X123825000Y-95250000D02*
X126682500Y-92392500D01*
X125095000Y-118903750D02*
X123825000Y-117633750D01*
%TO.N,SWITCH2*%
X176212500Y-102393750D02*
X176212500Y-96837500D01*
X176212500Y-96837500D02*
X178117500Y-94932500D01*
X159702500Y-118903750D02*
X176212500Y-102393750D01*
X144145000Y-118903750D02*
X159702500Y-118903750D01*
%TO.N,SWITCH3*%
X177055500Y-105043250D02*
X177055500Y-98534500D01*
X163195000Y-118903750D02*
X177055500Y-105043250D01*
X177055500Y-98534500D02*
X178117500Y-97472500D01*
%TD*%
M02*
