M48
; DRILL file {KiCad 8.0.7} date 2025-06-30T13:56:58-0400
; FORMAT={-:-/ absolute / metric / decimal}
; #@! TF.CreationDate,2025-06-30T13:56:58-04:00
; #@! TF.GenerationSoftware,Kicad,Pcbnew,8.0.7
; #@! TF.FileFunction,Plated,1,2,PTH
FMAT,2
METRIC
; #@! TA.AperFunction,Plated,PTH,ComponentDrill
T1C0.800
; #@! TA.AperFunction,Plated,PTH,ComponentDrill
T2C0.889
; #@! TA.AperFunction,Plated,PTH,ComponentDrill
T3C1.210
; #@! TA.AperFunction,Plated,PTH,ComponentDrill
T4C1.500
%
G90
G05
T1
X132.08Y-100.012
X132.08Y-107.632
X150.019Y-99.854
X150.019Y-107.474
X169.069Y-99.854
X169.069Y-107.474
T2
X178.117Y-92.392
X178.117Y-94.932
X178.117Y-97.472
X178.117Y-100.012
X178.117Y-102.552
X178.117Y-105.093
X178.117Y-107.632
X193.357Y-92.392
X193.357Y-94.932
X193.357Y-97.472
X193.357Y-100.012
X193.357Y-102.552
X193.357Y-105.093
X193.357Y-107.632
T3
X126.047Y-97.79
X128.588Y-97.79
X143.986Y-97.631
X146.526Y-97.631
X163.036Y-97.631
X165.576Y-97.631
T4
X125.095Y-118.904
X131.445Y-116.364
X144.145Y-118.904
X150.495Y-116.364
X163.195Y-118.904
X169.545Y-116.364
X182.245Y-118.904
X188.595Y-116.364
M30
