%TF.GenerationSoftware,KiCad,Pcbnew,8.0.7*%
%TF.CreationDate,2025-06-30T14:07:42-04:00*%
%TF.ProjectId,pathfinder,70617468-6669-46e6-9465-722e6b696361,rev?*%
%TF.SameCoordinates,Original*%
%TF.FileFunction,Copper,L1,Top*%
%TF.FilePolarity,Positive*%
%FSLAX46Y46*%
G04 Gerber Fmt 4.6, Leading zero omitted, Abs format (unit mm)*
G04 Created by KiCad (PCBNEW 8.0.7) date 2025-06-30 14:07:42*
%MOMM*%
%LPD*%
G01*
G04 APERTURE LIST*
G04 Aperture macros list*
%AMRoundRect*
0 Rectangle with rounded corners*
0 $1 Rounding radius*
0 $2 $3 $4 $5 $6 $7 $8 $9 X,Y pos of 4 corners*
0 Add a 4 corners polygon primitive as box body*
4,1,4,$2,$3,$4,$5,$6,$7,$8,$9,$2,$3,0*
0 Add four circle primitives for the rounded corners*
1,1,$1+$1,$2,$3*
1,1,$1+$1,$4,$5*
1,1,$1+$1,$6,$7*
1,1,$1+$1,$8,$9*
0 Add four rect primitives between the rounded corners*
20,1,$1+$1,$2,$3,$4,$5,0*
20,1,$1+$1,$4,$5,$6,$7,0*
20,1,$1+$1,$6,$7,$8,$9,0*
20,1,$1+$1,$8,$9,$2,$3,0*%
G04 Aperture macros list end*
%TA.AperFunction,SMDPad,CuDef*%
%ADD10RoundRect,0.152400X-1.063600X-0.609600X1.063600X-0.609600X1.063600X0.609600X-1.063600X0.609600X0*%
%TD*%
%TA.AperFunction,ComponentPad*%
%ADD11C,1.524000*%
%TD*%
%TA.AperFunction,SMDPad,CuDef*%
%ADD12RoundRect,0.152400X1.063600X0.609600X-1.063600X0.609600X-1.063600X-0.609600X1.063600X-0.609600X0*%
%TD*%
%TA.AperFunction,ComponentPad*%
%ADD13C,2.200000*%
%TD*%
%TA.AperFunction,ComponentPad*%
%ADD14O,1.600000X1.600000*%
%TD*%
%TA.AperFunction,ComponentPad*%
%ADD15C,1.600000*%
%TD*%
%TA.AperFunction,ComponentPad*%
%ADD16R,1.815000X1.815000*%
%TD*%
%TA.AperFunction,ComponentPad*%
%ADD17C,1.815000*%
%TD*%
%TA.AperFunction,Conductor*%
%ADD18C,0.200000*%
%TD*%
G04 APERTURE END LIST*
D10*
%TO.P,U1,14,VBUS*%
%TO.N,unconnected-(U1-VBUS-Pad14)*%
X194192500Y-92392500D03*
D11*
X193357500Y-92392500D03*
D10*
%TO.P,U1,13,GND*%
%TO.N,GND*%
X194192500Y-94932500D03*
D11*
X193357500Y-94932500D03*
D10*
%TO.P,U1,12,3V3*%
%TO.N,unconnected-(U1-3V3-Pad12)*%
X194192500Y-97472500D03*
D11*
X193357500Y-97472500D03*
D10*
%TO.P,U1,11,GPIO3/MOSI*%
%TO.N,unconnected-(U1-GPIO3{slash}MOSI-Pad11)*%
X194192500Y-100012500D03*
D11*
X193357500Y-100012500D03*
D10*
%TO.P,U1,10,GPIO4/MISO*%
%TO.N,unconnected-(U1-GPIO4{slash}MISO-Pad10)*%
X194192500Y-102552500D03*
D11*
X193357500Y-102552500D03*
D10*
%TO.P,U1,9,GPIO2/SCK*%
%TO.N,unconnected-(U1-GPIO2{slash}SCK-Pad9)*%
X194192500Y-105092500D03*
D11*
X193357500Y-105092500D03*
D10*
%TO.P,U1,8,GPIO1/RX*%
%TO.N,unconnected-(U1-GPIO1{slash}RX-Pad8)*%
X194192500Y-107632500D03*
D11*
X193357500Y-107632500D03*
%TO.P,U1,7,GPIO0/TX*%
%TO.N,LED3*%
X178117500Y-107632500D03*
D12*
X177282500Y-107632500D03*
D11*
%TO.P,U1,6,GPIO7/SCL*%
%TO.N,LED2*%
X178117500Y-105092500D03*
D12*
X177282500Y-105092500D03*
D11*
%TO.P,U1,5,GPIO6/SDA*%
%TO.N,LED1*%
X178117500Y-102552500D03*
D12*
X177282500Y-102552500D03*
D11*
%TO.P,U1,4,GPIO29/ADC3/A3*%
%TO.N,SWITCH4*%
X178117500Y-100012500D03*
D12*
X177282500Y-100012500D03*
D11*
%TO.P,U1,3,GPIO28/ADC2/A2*%
%TO.N,SWITCH3*%
X178117500Y-97472500D03*
D12*
X177282500Y-97472500D03*
D11*
%TO.P,U1,2,GPIO27/ADC1/A1*%
%TO.N,SWITCH2*%
X178117500Y-94932500D03*
D12*
X177282500Y-94932500D03*
D11*
%TO.P,U1,1,GPIO26/ADC0/A0*%
%TO.N,SWITCH1*%
X178117500Y-92392500D03*
D12*
X177282500Y-92392500D03*
%TD*%
D13*
%TO.P,SW4,1,1*%
%TO.N,GND*%
X188595000Y-116363750D03*
%TO.P,SW4,2,2*%
%TO.N,unconnected-(SW4-Pad2)*%
X182245000Y-118903750D03*
%TD*%
%TO.P,SW3,1,1*%
%TO.N,GND*%
X169545000Y-116363750D03*
%TO.P,SW3,2,2*%
%TO.N,SWITCH3*%
X163195000Y-118903750D03*
%TD*%
%TO.P,SW2,1,1*%
%TO.N,GND*%
X150495000Y-116363750D03*
%TO.P,SW2,2,2*%
%TO.N,SWITCH2*%
X144145000Y-118903750D03*
%TD*%
%TO.P,SW1,1,1*%
%TO.N,GND*%
X131445000Y-116363750D03*
%TO.P,SW1,2,2*%
%TO.N,SWITCH1*%
X125095000Y-118903750D03*
%TD*%
D14*
%TO.P,R3,2*%
%TO.N,LED3*%
X169068750Y-107473750D03*
D15*
%TO.P,R3,1*%
%TO.N,Net-(D3-PadA)*%
X169068750Y-99853750D03*
%TD*%
D14*
%TO.P,R2,2*%
%TO.N,LED2*%
X150018750Y-107473750D03*
D15*
%TO.P,R2,1*%
%TO.N,Net-(D2-PadA)*%
X150018750Y-99853750D03*
%TD*%
%TO.P,R1,1*%
%TO.N,Net-(D1-PadA)*%
X132080000Y-100012500D03*
D14*
%TO.P,R1,2*%
%TO.N,LED1*%
X132080000Y-107632500D03*
%TD*%
D16*
%TO.P,D2,C*%
%TO.N,GND*%
X143986250Y-97631250D03*
D17*
%TO.P,D2,A*%
%TO.N,Net-(D2-PadA)*%
X146526250Y-97631250D03*
%TD*%
%TO.P,D1,A*%
%TO.N,Net-(D1-PadA)*%
X128587500Y-97790000D03*
D16*
%TO.P,D1,C*%
%TO.N,GND*%
X126047500Y-97790000D03*
%TD*%
D17*
%TO.P,D3,A*%
%TO.N,Net-(D3-PadA)*%
X165576250Y-97631250D03*
D16*
%TO.P,D3,C*%
%TO.N,GND*%
X163036250Y-97631250D03*
%TD*%
D18*
%TO.N,GND*%
X188595000Y-99695000D02*
X193357500Y-94932500D01*
X188595000Y-116363750D02*
X188595000Y-99695000D01*
X169545000Y-116363750D02*
X188595000Y-116363750D01*
X150495000Y-116363750D02*
X169545000Y-116363750D01*
X131445000Y-116363750D02*
X150495000Y-116363750D01*
X126047500Y-110966250D02*
X126047500Y-97790000D01*
X131445000Y-116363750D02*
X126047500Y-110966250D01*
X127255000Y-96582500D02*
X126047500Y-97790000D01*
X142937500Y-96582500D02*
X127255000Y-96582500D01*
X143986250Y-97631250D02*
X142937500Y-96582500D01*
%TO.N,Net-(D1-PadA)*%
X130810000Y-100012500D02*
X128587500Y-97790000D01*
X132080000Y-100012500D02*
X130810000Y-100012500D01*
%TO.N,GND*%
X145193750Y-96423750D02*
X143986250Y-97631250D01*
X161828750Y-96423750D02*
X145193750Y-96423750D01*
X163036250Y-97631250D02*
X161828750Y-96423750D01*
%TO.N,Net-(D2-PadA)*%
X148748750Y-99853750D02*
X146526250Y-97631250D01*
X150018750Y-99853750D02*
X148748750Y-99853750D01*
%TO.N,Net-(D3-PadA)*%
X167798750Y-99853750D02*
X165576250Y-97631250D01*
X169068750Y-99853750D02*
X167798750Y-99853750D01*
%TO.N,LED1*%
X137160000Y-102552500D02*
X178117500Y-102552500D01*
X132080000Y-107632500D02*
X137160000Y-102552500D01*
%TO.N,LED2*%
X150018750Y-107473750D02*
X152400000Y-105092500D01*
X152400000Y-105092500D02*
X178117500Y-105092500D01*
%TO.N,LED3*%
X177958750Y-107473750D02*
X178117500Y-107632500D01*
X169068750Y-107473750D02*
X177958750Y-107473750D01*
%TO.N,GND*%
X126047500Y-97790000D02*
X124840000Y-96582500D01*
%TD*%
M02*
