%TF.GenerationSoftware,KiCad,Pcbnew,8.0.7*%
%TF.CreationDate,2025-06-30T14:07:42-04:00*%
%TF.ProjectId,pathfinder,70617468-6669-46e6-9465-722e6b696361,rev?*%
%TF.SameCoordinates,Original*%
%TF.FileFunction,Soldermask,Bot*%
%TF.FilePolarity,Negative*%
%FSLAX46Y46*%
G04 Gerber Fmt 4.6, Leading zero omitted, Abs format (unit mm)*
G04 Created by KiCad (PCBNEW 8.0.7) date 2025-06-30 14:07:42*
%MOMM*%
%LPD*%
G01*
G04 APERTURE LIST*
G04 Aperture macros list*
%AMRoundRect*
0 Rectangle with rounded corners*
0 $1 Rounding radius*
0 $2 $3 $4 $5 $6 $7 $8 $9 X,Y pos of 4 corners*
0 Add a 4 corners polygon primitive as box body*
4,1,4,$2,$3,$4,$5,$6,$7,$8,$9,$2,$3,0*
0 Add four circle primitives for the rounded corners*
1,1,$1+$1,$2,$3*
1,1,$1+$1,$4,$5*
1,1,$1+$1,$6,$7*
1,1,$1+$1,$8,$9*
0 Add four rect primitives between the rounded corners*
20,1,$1+$1,$2,$3,$4,$5,0*
20,1,$1+$1,$4,$5,$6,$7,0*
20,1,$1+$1,$6,$7,$8,$9,0*
20,1,$1+$1,$8,$9,$2,$3,0*%
G04 Aperture macros list end*
%ADD10C,1.524000*%
%ADD11C,1.700000*%
%ADD12C,4.000000*%
%ADD13C,2.200000*%
%ADD14O,1.600000X1.600000*%
%ADD15C,1.600000*%
%ADD16RoundRect,0.102000X-0.907500X-0.907500X0.907500X-0.907500X0.907500X0.907500X-0.907500X0.907500X0*%
%ADD17C,2.019000*%
G04 APERTURE END LIST*
D10*
%TO.C,U1*%
X193357500Y-92392500D03*
X193357500Y-94932500D03*
X193357500Y-97472500D03*
X193357500Y-100012500D03*
X193357500Y-102552500D03*
X193357500Y-105092500D03*
X193357500Y-107632500D03*
X178117500Y-107632500D03*
X178117500Y-105092500D03*
X178117500Y-102552500D03*
X178117500Y-100012500D03*
X178117500Y-97472500D03*
X178117500Y-94932500D03*
X178117500Y-92392500D03*
%TD*%
D11*
%TO.C,SW4*%
X180975000Y-121443750D03*
D12*
X186055000Y-121443750D03*
D11*
X191135000Y-121443750D03*
D13*
X188595000Y-116363750D03*
X182245000Y-118903750D03*
%TD*%
D11*
%TO.C,SW3*%
X161925000Y-121443750D03*
D12*
X167005000Y-121443750D03*
D11*
X172085000Y-121443750D03*
D13*
X169545000Y-116363750D03*
X163195000Y-118903750D03*
%TD*%
D11*
%TO.C,SW2*%
X142875000Y-121443750D03*
D12*
X147955000Y-121443750D03*
D11*
X153035000Y-121443750D03*
D13*
X150495000Y-116363750D03*
X144145000Y-118903750D03*
%TD*%
D11*
%TO.C,SW1*%
X123825000Y-121443750D03*
D12*
X128905000Y-121443750D03*
D11*
X133985000Y-121443750D03*
D13*
X131445000Y-116363750D03*
X125095000Y-118903750D03*
%TD*%
D14*
%TO.C,R3*%
X169068750Y-107473750D03*
D15*
X169068750Y-99853750D03*
%TD*%
D14*
%TO.C,R2*%
X150018750Y-107473750D03*
D15*
X150018750Y-99853750D03*
%TD*%
%TO.C,R1*%
X132080000Y-100012500D03*
D14*
X132080000Y-107632500D03*
%TD*%
D16*
%TO.C,D2*%
X143986250Y-97631250D03*
D17*
X146526250Y-97631250D03*
%TD*%
%TO.C,D1*%
X128587500Y-97790000D03*
D16*
X126047500Y-97790000D03*
%TD*%
D17*
%TO.C,D3*%
X165576250Y-97631250D03*
D16*
X163036250Y-97631250D03*
%TD*%
M02*
